<?xml version="1.0" encoding="iso-8859-1"?>
<svg version="1.1" id="Layer_1" xmlns="http://www.w3.org/2000/svg" xmlns:xlink="http://www.w3.org/1999/xlink" x="0px" y="0px"
	 viewBox="0 0 496 496" style="enable-background:new 0 0 496 496;" xml:space="preserve">
<g>
	<g>
		<g id="Fan">
			<path d="M224,248.4c0-12.712-4.952-24.664-13.944-33.656l-4.936-4.936c3.352-2.984,6.368-6.328,8.928-10.024l8.24,2.744
				C228.104,204.464,232,209.88,232,216c0,17.648,14.352,32,32,32s32-14.352,32-32v-56.4c0-26.248-21.352-47.6-47.6-47.6
				c-12.712,0-24.664,4.952-33.656,13.944l-4.936,4.936c-2.976-3.352-6.328-6.368-10.024-8.928l2.736-8.24
				c1.944-5.808,7.352-9.712,13.48-9.712c17.648,0,32-14.352,32-32s-14.352-32-32-32h-56.4C133.352,40,112,61.352,112,87.6
				c0,12.712,4.952,24.664,13.944,33.656l4.936,4.936c-3.352,2.984-6.368,6.328-8.928,10.024l-8.24-2.744
				C107.896,131.536,104,126.12,104,120c0-17.648-14.352-32-32-32s-32,14.352-32,32v56.4c0,26.248,21.352,47.6,47.6,47.6
				c12.712,0,24.664-4.952,33.656-13.944l4.936-4.936c2.976,3.352,6.328,6.368,10.024,8.928l-2.736,8.24
				C131.536,228.096,126.128,232,120,232c-17.648,0-32,14.352-32,32s14.352,32,32,32h56.4C202.648,296,224,274.648,224,248.4z
				 M226.056,137.256C232.024,131.288,239.96,128,248.4,128c17.424,0,31.6,14.176,31.6,31.6V216c0,8.824-7.176,16-16,16
				c-8.824,0-16-7.176-16-16c0-13.016-8.296-24.528-20.648-28.648l-6.12-2.04C223.008,179.856,224,174.04,224,168
				c0-8.384-1.904-16.32-5.224-23.464L226.056,137.256z M109.944,198.744C103.976,204.712,96.04,208,87.6,208
				C70.176,208,56,193.824,56,176.4V120c0-8.824,7.176-16,16-16s16,7.176,16,16c0,13.016,8.296,24.528,20.648,28.648l6.12,2.04
				C112.992,156.144,112,161.96,112,168c0,8.384,1.904,16.32,5.224,23.464L109.944,198.744z M128,87.6
				c0-17.424,14.176-31.6,31.6-31.6H216c8.824,0,16,7.176,16,16s-7.176,16-16,16c-13.016,0-24.528,8.296-28.656,20.656l-2.04,6.12
				C179.848,112.992,174.04,112,168,112c-8.384,0-16.312,1.904-23.464,5.224l-7.28-7.288C131.288,103.976,128,96.04,128,87.6z
				 M128,168c0-22.056,17.944-40,40-40c22.056,0,40,17.944,40,40c0,22.056-17.944,40-40,40C145.944,208,128,190.056,128,168z
				 M104,264c0-8.824,7.176-16,16-16c13.016,0,24.528-8.296,28.656-20.656l2.04-6.12C156.152,223.008,161.96,224,168,224
				c8.384,0,16.312-1.904,23.464-5.224l7.28,7.288c5.968,5.96,9.256,13.896,9.256,22.336c0,17.424-14.176,31.6-31.6,31.6H120
				C111.176,280,104,272.824,104,264z"/>
				
            <animateTransform attributeName="transform" begin="0s" dur="3s" type="rotate" from="0 168 168" to="360 168 168" repeatCount="indefinite" additive ="sum"/>
		</g>
	</g>
</g>
</svg>
