<?xml version="1.0" encoding="iso-8859-1"?>
<svg version="1.1" id="Capa_1" xmlns="http://www.w3.org/2000/svg" xmlns:xlink="http://www.w3.org/1999/xlink" x="0px" y="0px"
	 viewBox="0 0 612 612" style="enable-background:new 0 0 612 612;" xml:space="preserve">
<g>
	<g id="turbine_svg1">
		<path d="M524.976,260.924c-1.238-6.015-3.819-10.307-8.554-14.218c-37.84-31.272-90.317-29.17-157.433,6.305
			c-4.38-4.38-9.121-8.082-14.434-11.27c46.257-41.499,88.423-58.921,126.495-52.269c11.225,1.961,18.998-10.901,12.043-19.926
			c-15.437-20.035-33.006-36.347-54.128-50.259c-5.13-3.378-9.989-4.586-16.103-4.005c-48.869,4.645-84.49,43.238-106.863,115.78
			c-6.195,0-12.165,0.734-18.175,2.237c3.365-62.052,20.86-104.187,52.486-126.405c9.324-6.55,5.725-21.141-5.574-22.607
			c-25.083-3.251-49.04-2.363-73.813,2.737c-6.015,1.238-10.307,3.819-14.218,8.554c-31.272,37.84-29.17,90.317,6.305,157.433
			c-4.38,4.38-8.082,9.121-11.27,14.434c-41.499-46.257-58.921-88.423-52.269-126.495c1.961-11.225-10.901-18.998-19.926-12.044
			c-20.035,15.437-36.347,33.006-50.259,54.128c-3.378,5.13-4.586,9.989-4.005,16.103c4.645,48.869,43.238,84.49,115.78,106.863
			c0,6.195,0.734,12.165,2.237,18.175c-62.052-3.365-104.187-20.86-126.405-52.486c-6.55-9.324-21.141-5.725-22.607,5.574
			c-3.251,25.083-2.363,49.04,2.737,73.813c1.238,6.015,3.819,10.307,8.554,14.218c37.84,31.272,90.317,29.17,157.433-6.305
			c4.38,4.38,9.121,8.082,14.434,11.27c-46.257,41.499-88.423,58.921-126.495,52.269c-11.225-1.961-18.998,10.901-12.043,19.926
			c15.437,20.035,33.006,36.347,54.128,50.259c5.13,3.378,9.989,4.586,16.103,4.005c48.869-4.645,84.49-43.238,106.863-115.78
			c6.195,0,12.165-0.734,18.175-2.238c-3.365,62.052-20.86,104.187-52.486,126.405c-9.324,6.55-5.725,21.141,5.574,22.607
			c25.083,3.251,49.04,2.363,73.813-2.737c6.015-1.238,10.307-3.819,14.218-8.554c31.272-37.84,29.17-90.317-6.305-157.433
			c4.38-4.38,8.082-9.121,11.27-14.434c41.499,46.257,58.921,88.423,52.269,126.495c-1.961,11.225,10.901,18.998,19.926,12.043
			c20.035-15.437,36.347-33.006,50.259-54.128c3.378-5.13,4.586-9.989,4.005-16.103c-4.645-48.869-43.238-84.49-115.78-106.863
			c0-6.195-0.734-12.165-2.237-18.175c62.052,3.365,104.187,20.86,126.405,52.486c6.55,9.324,21.141,5.725,22.607-5.574
			C530.964,309.653,530.076,285.698,524.976,260.924z M306,368.449c-34.489,0-62.449-27.96-62.449-62.449
			s27.96-62.449,62.449-62.449s62.449,27.96,62.449,62.449S340.489,368.449,306,368.449z"/>

	</g>
</g>
</svg>