<?xml version="1.0" encoding="iso-8859-1"?>
<svg width="512" height="512" viewBox="0 0 512 512" xmlns="http://www.w3.org/2000/svg">
    <g id="Fan">
        <path stroke="null" id="svg_1"
            d="M 305.42973 59.15639 C 304.93645 59.14613 304.45843 59.14819 303.99566 59.15947 C 297.84543 59.31331 294.40468 61.45273 295.30479 66.07001 C 305.95861 109.34549 307.25538 154.05681 290.13095 193.56729 C 303.06199 199.54658 313.91007 209.35856 321.20858 221.56328 C 350.67923 196.92615 380.31465 164.82877 399.13454 139.73422 C 425.72078 104.28515 336.48499 59.8292 305.42771 59.15948 L 305.42974 59.1564 L 305.42973 59.15639 z M 205.47401 63.660849999999996 C 164.76065 63.09882 92.8283 124.99213 113.29685 132.05344 C 155.81042 144.39149 194.87613 165.6277 220.24595 200.36705 C 231.44797 192.28219 245.07876 187.43107 259.79171 187.17775 C 253.36789 149.12159 240.61687 107.19068 228.47609 78.20703 C 224.20236 68.00532 215.8522 63.80341 205.47401 63.660849999999996 z M 446.33069 190.54276 C 445.217 190.56327 444.09517 191.03813 442.97639 192.02271 C 411.1502 222.95501 373.41279 246.43628 330.93583 251.24945 C 331.14535 253.47297 331.26333 255.7211 331.26333 257.99999 C 331.26333 270.46727 328.02904 282.192 322.38226 292.38858 C 358.27877 305.80762 400.66622 315.63909 431.63197 319.52819 C 482.35026 325.89721 465.59503 190.19713 446.3317 190.54276 L 446.33068 190.54276 L 446.33069 190.54276 z M 86.65772 196.26565 C 37.67761 196.78563 58.9883 341.56746 78.96459 323.98754 C 110.80604 293.03986 148.56277 269.54833 191.06414 264.7526 C 190.85361 262.52703 190.73664 260.27788 190.73664 258.00001 C 190.73664 245.54504 193.96482 233.82954 199.60245 223.64013 C 163.69475 210.21186 121.28492 200.37219 90.30799 196.48206 C 89.04886 196.32412 87.83346 196.25232 86.6567 196.26668 L 86.65772 196.26565 z M 260.99998 205.60893 C 249.39927 205.60893 238.719 209.39957 230.09424 215.82192 C 232.11414 219.48026 233.99979 223.26372 235.73898 227.17949 C 242.61743 221.42789 251.42934 217.95929 260.99998 217.95929 C 261.85839 217.95929 262.70866 217.99519 263.55283 218.05159 C 263.28432 214.02096 262.91004 209.88058 262.42592 205.64175 C 261.95095 205.63149 261.47801 205.60688 260.99999 205.60688 L 260.99999 205.60893 L 260.99998 205.60893 z M 281.76857 209.93699 C 279.64493 213.51636 277.3494 217.03932 274.86774 220.50279 C 284.32447 224.09241 292.09489 231.23064 296.56797 240.28674 C 299.92125 238.02015 303.31522 235.60279 306.73868 233.0398 C 301.24446 222.77655 292.45086 214.60965 281.76958 209.93596 L 281.76856 209.93699 L 281.76857 209.93699 z M 216.69636 230.53938 C 211.84493 238.51347 209.04392 247.91111 209.04392 258 C 209.04392 259.98968 209.1619 261.94859 209.37345 263.87673 C 213.49259 263.94442 217.65241 264.18749 221.85088 264.62235 C 221.48982 262.4655 221.29149 260.25532 221.29149 258.00001 C 221.29149 249.80849 223.77314 242.16874 228.01026 235.8028 C 224.38644 234.00799 220.6131 232.2501 216.69738 230.53939 L 216.69636 230.53939 L 216.69636 230.53938 z M 260.99998 236.42123 C 249.07177 236.42123 239.6008 245.97168 239.6008 258 S 249.07177 279.57877 260.99998 279.57877 S 282.39916 270.02832 282.39916 258 S 272.92819 236.42123 260.99998 236.42123 z M 300.15112 251.39509 C 300.51015 253.54681 300.70746 255.75084 300.70746 258 C 300.70746 266.20485 298.2197 273.85588 293.97038 280.22695 C 297.59522 282.02176 301.36957 283.78068 305.2853 285.49139 C 310.15199 277.51012 312.95808 268.10223 312.95808 258 C 312.95808 256.01545 312.84112 254.06167 312.63058 252.13353 C 308.51144 252.06994 304.35162 251.82892 300.15315 251.39509 L 300.15112 251.39509 z M 225.41877 275.68761 C 222.06549 277.9542 218.67254 280.37156 215.24806 282.93352 C 220.73414 293.19472 229.51757 301.36367 240.18664 306.04454 C 242.31232 302.46722 244.60683 298.94221 247.08848 295.48079 C 237.64294 291.88091 229.88167 284.74064 225.41876 275.68863 L 225.41876 275.6876 L 225.41877 275.68761 z M 286.21216 288.86255 C 279.33879 294.58851 270.54621 298.04173 260.99897 298.04173 C 260.1192 298.04173 259.24961 298.00071 258.38306 297.94225 C 258.65157 301.97288 259.02585 306.11428 259.50896 310.35414 C 260.00529 310.36747 260.49959 310.39209 260.99897 310.39209 C 272.57832 310.39209 283.23926 306.61375 291.85487 300.21397 C 289.83497 296.55768 287.94932 292.77627 286.21013 288.86255 L 286.21216 288.86255 z M 200.7731 294.40903 C 171.28617 319.05231 141.63041 351.17329 122.80036 376.28117 C 90.18797 419.7669 231.86497 476.80499 226.63315 449.94025 C 215.97424 406.65554 214.68256 361.93293 231.82021 322.41323 C 218.89934 316.42676 208.0655 306.61171 200.77411 294.40904 L 200.77309 294.40904 L 200.7731 294.40903 z M 301.70927 315.66678 C 290.50115 323.74343 276.86222 328.58327 262.14317 328.82326 C 268.56699 366.88353 281.31903 408.81751 293.46184 437.80423 C 314.50097 488.02819 434.32619 392.82112 408.63701 383.95988 C 366.13361 371.62491 327.08113 350.39177 301.70927 315.66678 z"
            fill="#000" />
        <animateTransform attributeName="transform" begin="0s" dur="3s" type="rotate" from="0 261 259" to="360 261 259"
            repeatCount="indefinite" additive="sum" />
    </g>
</svg>