<?xml version="1.0" encoding="iso-8859-1"?>
<!DOCTYPE svg PUBLIC "-//W3C//DTD SVG 1.1//EN" "http://www.w3.org/Graphics/SVG/1.1/DTD/svg11.dtd">
<svg version="1.1" id="Capa_1" xmlns="http://www.w3.org/2000/svg" xmlns:xlink="http://www.w3.org/1999/xlink" x="0px" y="0px"
	 width="25px" height="25px" viewBox="0 0 25 25" style="enable-background:new 0 0 25 25;" xml:space="preserve">
<g>
	<g id="Fan">
		<path d="M15.134,12.5c0-0.15-0.021-0.296-0.045-0.439c2.093-0.5,4.345-1.58,6.897-3.717c-0.066-0.126-0.137-0.242-0.205-0.311
			L18.238,4.49c-1.032,2.883-2.323,4.845-3.762,6.286c-0.14-0.158-0.291-0.303-0.463-0.425c1.1-1.788,1.941-4.035,2.08-7.542
			c-0.07-0.014-0.142-0.03-0.195-0.03h-5.188c1.525,2.858,1.951,5.101,1.952,7.105c-0.056-0.003-0.107-0.016-0.163-0.016
			c-0.15,0-0.295,0.021-0.439,0.044c-0.502-2.091-1.58-4.344-3.716-6.896C8.214,3.083,8.097,3.154,8.026,3.224L4.489,6.762
			c2.883,1.032,4.844,2.324,6.285,3.764c-0.157,0.137-0.301,0.288-0.422,0.459C8.563,9.884,6.316,9.042,2.807,8.903
			C2.792,8.974,2.777,9.045,2.777,9.1v5.184c2.858-1.525,5.102-1.952,7.107-1.953c-0.004,0.058-0.018,0.11-0.018,0.169
			c0,0.15,0.021,0.295,0.045,0.438c-2.092,0.5-4.346,1.578-6.899,3.715c0.066,0.129,0.137,0.246,0.206,0.314l3.54,3.541
			c1.033-2.882,2.326-4.844,3.765-6.283c0.139,0.156,0.289,0.301,0.46,0.422c-1.1,1.789-1.943,4.037-2.082,7.545
			c0.072,0.016,0.144,0.031,0.199,0.031h5.185c-1.526-2.859-1.953-5.103-1.955-7.106c0.059,0.003,0.113,0.017,0.171,0.017
			c0.149,0,0.293-0.021,0.436-0.044c0.504,2.091,1.583,4.345,3.717,6.896c0.13-0.066,0.248-0.137,0.32-0.207l3.537-3.538
			c-2.884-1.032-4.846-2.324-6.287-3.763c0.158-0.139,0.303-0.289,0.426-0.461c1.787,1.099,4.037,1.94,7.543,2.078
			c0.015-0.068,0.029-0.14,0.029-0.193v-5.188c-2.857,1.526-5.101,1.952-7.104,1.953C15.12,12.609,15.134,12.557,15.134,12.5z"/>
			
			<animateTransform attributeName="transform" begin="0s" dur="6s" type="rotate" from="0 12.499500751495361 12.501000165939331" to="360 12.499500751495361 12.501000165939331" repeatCount="indefinite" additive ="sum"/>
	</g>
</g>
</svg>
