<?xml version="1.0" encoding="utf-8"?>
<!DOCTYPE svg PUBLIC "-//W3C//DTD SVG 1.1//EN" "http://www.w3.org/Graphics/SVG/1.1/DTD/svg11.dtd">
<svg width="76px" height="76px" viewBox="0 0 76 76" xmlns="http://www.w3.org/2000/svg" xmlns:xlink="http://www.w3.org/1999/xlink" version="1.1" baseProfile="full" enable-background="new 0 0 76.00 76.00" xml:space="preserve">
<g id="Fan">
<path fill="#000000" fill-opacity="1" stroke-width="0.2" stroke-linejoin="round" d="M37.69579934477807,35.550950050354004 C38.800399344778064,35.550950050354004 39.69579934477807,36.446350050354006 39.69579934477807,37.550950050354004 C39.69579934477807,38.655550050354 38.800399344778064,39.550950050354004 37.69579934477807,39.550950050354004 C36.59119934477807,39.550950050354004 35.69579934477807,38.655550050354 35.69579934477807,37.550950050354004 C35.69579934477807,36.446350050354006 36.59119934477807,35.550950050354004 37.69579934477807,35.550950050354004 zM50.23669934477807,40.577850050354 C49.01159934477807,40.053250050354 47.75619934477807,39.732250050354004 46.51859934477807,39.612950050354 C45.280899344778064,39.493750050354 44.06119934477807,39.576250050354005 42.841499344778065,39.658650050354005 C43.045899344778064,41.279150050354005 43.25039934477807,42.899650050354005 43.22119934477806,44.544150050354006 C43.192099344778065,46.188550050354 42.92919934477807,47.856850050354005 42.430299344778064,49.495950050354004 C42.173899344778064,50.338250050354006 41.855199344778065,51.172850050354 41.47519934477807,51.992450050354 L40.89829934477807,52.137550050354 C40.00469934477807,52.34385005035401 39.11129934477807,52.46565005035401 38.226399344778066,52.508150050354004 C38.38139934477807,51.853350050354 38.487699344778065,51.201050050354006 38.54619934477807,50.556850050354 C38.666599344778064,49.22955005035401 38.58389934477807,47.936350050354 38.31489934477807,46.722450050354006 C38.04579934477807,45.508550050354 37.59049934477807,44.374050050354 37.13509934477807,43.239450050354 C35.65709934477807,43.934750050354005 34.179099344778066,44.629950050354005 32.606099344778066,45.110350050354 C31.033199344778076,45.590750050354 29.365299344778066,45.856350050354 27.652299344778065,45.888350050354006 C26.770299344778067,45.90485005035401 25.876399344778065,45.859350050354 24.977799344778067,45.750850050354 C24.383699344778066,44.84535005035401 23.882099344778066,43.86525005035401 23.48929934477807,42.82095005035401 C24.159599344778066,42.76595005035401 24.812499344778068,42.66555005035401 25.442999344778066,42.52215005035401 C26.742499344778068,42.22655005035401 27.946899344778068,41.748250050354 29.01819934477807,41.117250050354 C30.089599344778065,40.486350050354005 31.027899344778067,39.702650050354 31.96619934477807,38.918950050354006 C30.84829934477807,37.728150050354 29.730299344778068,36.53735005035401 28.787399344778066,35.18975005035401 C27.844399344778065,33.842250050354004 27.076399344778068,32.338050050354006 26.51669934477807,30.718750050354004 C26.228899344778068,29.886450050354004 25.996199344778066,29.023750050354003 25.821799344778068,28.137150050354006 C26.505799344778065,27.283050050354003 27.284499344778066,26.501450050354006 28.146799344778067,25.810050050354004 C28.406299344778066,26.431150050354002 28.703899344778065,27.021650050354005 29.035399344778067,27.577450050354003 C29.718099344778068,28.722050050354003 30.545099344778066,29.719650050354005 31.47629934477807,30.543550050354003 C32.40749934477807,31.367450050354005 33.44269934477806,32.01765005035401 34.47799934477807,32.667950050354 C35.265099344778065,31.236750050354004 36.05219934477806,29.805450050354004 37.042299344778066,28.492250050354002 C38.03249934477807,27.179050050354004 39.22579934477807,25.983850050354004 40.592799344778065,24.951150050354006 C41.29579934477807,24.419950050354004 42.04479934477806,23.931850050354004 42.83449934477807,23.491850050354003 C43.86369934477807,23.882450050354002 44.845599344778066,24.384550050354004 45.762299344778064,24.986850050354004 C45.252899344778065,25.424950050354003 44.78409934477806,25.889650050354003 44.35869934477807,26.375850050354003 C43.48119934477807,27.378850050354004 42.78789934477807,28.473650050354003 42.292099344778066,29.613850050354003 C41.79619934477807,30.754050050354003 41.497799344778066,31.939550050354 41.19929934477807,33.125050050354005 C42.80369934477807,33.431350050354006 44.40799934477807,33.737650050354006 45.96299934477807,34.273550050354004 C47.517899344778066,34.809450050354 49.02329934477807,35.575050050354 50.427999344778065,36.555950050354014 C51.15109934477807,37.061050050354005 51.847499344778065,37.623150050354006 52.51069934477807,38.239050050354 C52.458199344778066,39.347850050354005 52.282399344778064,40.435650050354006 51.99399934477807,41.485150050354 C51.41909934477807,41.135350050354006 50.83149934477807,40.832550050354 50.23669934477807,40.577850050354 zM37.69579934477807,34.050950050354004 C35.76279934477807,34.050950050354004 34.19579934477807,35.617950050354004 34.19579934477807,37.550950050354004 C34.19579934477807,39.483950050354004 35.76279934477807,41.050950050354004 37.69579934477807,41.050950050354004 C39.628799344778066,41.050950050354004 41.19579934477807,39.483950050354004 41.19579934477807,37.550950050354004 C41.19579934477807,35.617950050354004 39.628799344778066,34.050950050354004 37.69579934477807,34.050950050354004 z"/>
			<animateTransform attributeName="transform" begin="0s" dur="2s" type="rotate" from="0 38 38" to="360 38 38" repeatCount="indefinite" additive ="sum"/>
</g>
	
</svg>
