<?xml version="1.0" encoding="utf-8"?>

<svg version="1.1" id="Icons" xmlns="http://www.w3.org/2000/svg" xmlns:xlink="http://www.w3.org/1999/xlink" x="0px" y="0px"
	 viewBox="0 0 32 32" style="enable-background:new 0 0 32 32;" xml:space="preserve">
<style type="text/css">
	.st0{fill:none;stroke:#000000;stroke-width:2;stroke-linecap:round;stroke-linejoin:round;stroke-miterlimit:10;}
	.st1{fill:none;stroke:#000000;stroke-width:2;stroke-linejoin:round;stroke-miterlimit:10;}
</style>
<g id="Fan">
<circle class="st0" cx="16" cy="16" r="10"/>
<circle class="st0" cx="16" cy="16" r="3"/>
<path class="st0" d="M14.5,13.4L14.5,13.4c0.6-2.4-0.6-4.8-2.8-5.8L11,7.3"/>
<path class="st0" d="M13,16L13,16c-1.7-1.7-4.4-1.9-6.4-0.5L6,16"/>
<path class="st0" d="M14.5,18.6L14.5,18.6c-2.4,0.6-3.9,2.9-3.6,5.3l0.1,0.8"/>
<path class="st0" d="M17.5,18.6L17.5,18.6c-0.6,2.4,0.6,4.8,2.8,5.8l0.7,0.3"/>
<path class="st0" d="M19,16L19,16c1.7,1.7,4.4,1.9,6.4,0.5L26,16"/>
<path class="st0" d="M17.5,13.4L17.5,13.4c2.4-0.6,3.9-2.9,3.6-5.3L21,7.3"/>
<animateTransform attributeName="transform" begin="0s" dur="6s" type="rotate" from="0 16 16" to="360 16 16" repeatCount="indefinite" additive ="sum"/>
</g>
</svg>
