<?xml version="1.0" encoding="utf-8"?>

<svg version="1.1" id="Icons" xmlns="http://www.w3.org/2000/svg" xmlns:xlink="http://www.w3.org/1999/xlink" x="0px" y="0px"
	 viewBox="0 0 32 32" style="enable-background:new 0 0 32 32;" xml:space="preserve">
<style type="text/css">
	.st0{fill:none;stroke:#000000;stroke-width:2;stroke-linecap:round;stroke-linejoin:round;stroke-miterlimit:10;}
</style>
<g id="Fan">
	<path d="M12.4,14.3c0.3-0.6,0.7-1.1,1.2-1.5c0.3-1.8-0.6-3.6-2.3-4.3l-0.2-0.1c-1.9,1.3-3.4,3.3-3.9,5.6
		C8.9,13.4,10.8,13.5,12.4,14.3z"/>
	<path d="M12.1,16.5c-1.4-1.2-3.4-1.3-4.8-0.2L7,16.5c0.1,2.4,1.2,4.6,2.9,6.2c0.2-1.8,1.3-3.4,2.8-4.3
		C12.4,17.8,12.1,17.2,12.1,16.5z"/>
	<circle cx="16" cy="16" r="2"/>
	<path d="M15.6,12c0.1,0,0.2,0,0.4,0c0.6,0,1.1,0.1,1.6,0.3c1.7-0.6,2.8-2.3,2.5-4.1l0-0.2c-1.2-0.6-2.6-1-4.1-1
		c-0.9,0-1.9,0.2-2.7,0.4C14.7,8.5,15.6,10.2,15.6,12z"/>
	<path d="M19.3,13.7c0.4,0.5,0.6,1.1,0.7,1.8c1.4,1.2,3.4,1.3,4.8,0.2l0.2-0.1c-0.1-2.4-1.2-4.6-2.9-6.2
		C21.8,11.2,20.8,12.8,19.3,13.7z"/>
	<path d="M19.6,17.7c-0.3,0.6-0.7,1.1-1.2,1.5c-0.3,1.8,0.6,3.6,2.3,4.3l0.2,0.1c1.9-1.3,3.4-3.3,3.9-5.6c-0.7,0.3-1.5,0.5-2.3,0.5
		C21.5,18.4,20.5,18.2,19.6,17.7z"/>
	<path d="M16.4,20c-0.1,0-0.2,0-0.4,0c-0.6,0-1.1-0.1-1.6-0.3c-1.7,0.6-2.8,2.3-2.5,4.1l0,0.2c1.2,0.6,2.6,1,4.1,1
		c0.9,0,1.9-0.2,2.7-0.4C17.3,23.5,16.4,21.8,16.4,20z"/>
		
<animateTransform attributeName="transform" begin="0s" dur="6s" type="rotate" from="0 16 16" to="360 16 16" repeatCount="indefinite" additive ="sum"/>
</g>
</svg>
