<?xml version="1.0" encoding="iso-8859-1"?>
<!DOCTYPE svg PUBLIC "-//W3C//DTD SVG 1.1//EN" "http://www.w3.org/Graphics/SVG/1.1/DTD/svg11.dtd">
<svg version="1.1" id="Capa_1" xmlns="http://www.w3.org/2000/svg" xmlns:xlink="http://www.w3.org/1999/xlink" x="0px" y="0px"
	 viewBox="0 0 292.686 292.686" style="enable-background:new 0 0 292.686 292.686;" xml:space="preserve">
<g id="Fan">
	<path d="M146.345,0C65.65,0,0,65.648,0,146.341c0,80.694,65.65,146.345,146.345,146.345c80.692,0,146.341-65.65,146.341-146.345
		C292.686,65.648,227.037,0,146.345,0z M241.959,175.138l16.343,2.878c-1.432,5.056-3.204,9.969-5.279,14.721l-14.453-8.337
		c-5.98-3.45-13.625-1.397-17.074,4.582c-3.449,5.98-1.397,13.624,4.582,17.074l14.535,8.384
		c-3.077,4.248-6.429,8.285-10.038,12.076l-10.851-12.918c-4.439-5.284-12.324-5.972-17.611-1.531
		c-5.286,4.44-5.972,12.325-1.531,17.611l10.921,13.002c-4.34,2.945-8.893,5.6-13.623,7.947l-5.841-16.034
		c-2.363-6.488-9.537-9.831-16.023-7.467c-6.487,2.363-9.83,9.537-7.467,16.023l5.867,16.104c-5.07,1.261-10.269,2.19-15.575,2.759
		v-17.16c0-6.903-5.597-12.5-12.5-12.5c-6.903,0-12.5,5.597-12.5,12.5v17.158c-5.303-0.569-10.499-1.498-15.567-2.758l5.858-16.076
		c2.363-6.486-0.979-13.66-7.466-16.024c-6.485-2.366-13.661,0.979-16.024,7.466l-5.833,16.008c-4.73-2.347-9.281-5-13.621-7.945
		l10.903-12.984c4.439-5.287,3.753-13.171-1.534-17.61c-5.287-4.441-13.172-3.753-17.61,1.534L62.116,226.52
		c-3.61-3.79-6.962-7.828-10.04-12.076l14.517-8.375c5.981-3.449,8.031-11.094,4.581-17.073c-3.449-5.98-11.096-8.031-17.073-4.581
		l-14.435,8.328c-2.076-4.754-3.849-9.669-5.282-14.727l16.33-2.873c6.799-1.195,11.341-7.678,10.145-14.477
		c-1.196-6.799-7.673-11.339-14.476-10.145l-16.163,2.844C30.079,151.04,30,148.7,30,146.341c0-2.867,0.109-5.709,0.314-8.526
		l16.058,2.837c0.735,0.13,1.468,0.192,2.189,0.192c5.95,0,11.224-4.265,12.295-10.327c1.201-6.798-3.337-13.283-10.135-14.484
		l-15.911-2.811c1.481-4.977,3.28-9.818,5.386-14.493l13.887,8.026c1.971,1.139,4.12,1.68,6.243,1.68
		c4.317,0,8.519-2.24,10.834-6.247c3.455-5.978,1.409-13.623-4.567-17.077l-13.737-7.939c3.057-4.121,6.382-8.032,9.945-11.711
		l10.132,12.08c2.473,2.948,6.016,4.468,9.584,4.468c2.834,0,5.685-0.959,8.025-2.923c5.29-4.437,5.981-12.32,1.545-17.609
		l-10.08-12.019c4.237-2.823,8.669-5.375,13.271-7.633l5.355,14.713c1.848,5.076,6.641,8.228,11.747,8.228
		c1.419,0,2.863-0.243,4.274-0.757c6.487-2.361,9.832-9.534,7.471-16.021l-5.342-14.679c4.907-1.196,9.933-2.083,15.059-2.634
		v15.601c0,6.903,5.597,12.5,12.5,12.5c6.903,0,12.5-5.597,12.5-12.5V30.673c5.132,0.551,10.163,1.438,15.075,2.637l-5.349,14.694
		c-2.361,6.487,0.983,13.66,7.471,16.021c1.411,0.514,2.855,0.757,4.275,0.757c5.105,0,9.899-3.151,11.747-8.228l5.361-14.726
		c4.601,2.258,9.031,4.81,13.268,7.633l-10.091,12.026c-4.438,5.289-3.748,13.173,1.54,17.61c2.343,1.966,5.193,2.925,8.028,2.925
		c3.567,0,7.11-1.519,9.582-4.465l10.146-12.091c3.562,3.678,6.884,7.588,9.941,11.708l-13.748,7.936
		c-5.98,3.452-8.028,11.097-4.577,17.075c2.316,4.011,6.518,6.253,10.838,6.253c2.12,0,4.27-0.54,6.237-1.676l13.909-8.029
		c2.105,4.674,3.904,9.514,5.384,14.49l-15.922,2.809c-6.799,1.199-11.338,7.683-10.138,14.481
		c1.069,6.064,6.344,10.33,12.295,10.33c0.721,0,1.452-0.063,2.186-0.192l16.074-2.836c0.205,2.815,0.314,5.658,0.314,8.524
		c0,2.359-0.079,4.699-0.218,7.023l-16.174-2.848c-6.789-1.198-13.281,3.343-14.477,10.144
		C230.618,167.459,235.159,173.941,241.959,175.138z"/>
	<path d="M146.345,82.05c-35.452,0-64.295,28.841-64.295,64.291c0,35.452,28.843,64.295,64.295,64.295
		c35.45,0,64.291-28.843,64.291-64.295C210.636,110.891,181.795,82.05,146.345,82.05z M146.345,180.636
		c-18.91,0-34.295-15.385-34.295-34.295c0-18.908,15.385-34.291,34.295-34.291c18.908,0,34.291,15.383,34.291,34.291
		C180.636,165.251,165.253,180.636,146.345,180.636z"/>
		
<animateTransform attributeName="transform" begin="0s" dur="6s" type="rotate" from="0 146.34300231933594 146.34300231933594" to="360 146.34300231933594 146.34300231933594" repeatCount="indefinite" additive ="sum"/>
</g>
</svg>
