<svg xmlns="http://www.w3.org/2000/svg" viewBox="0 0 448 448"><path fill="gray" d="M384 16c26.5 0 48 21.5 48 48v320c0 26.5-21.5 48-48 48H64c-26.5 0-48-21.5-48-48V64c0-26.5 21.5-48 48-48h320ZM64 0C28.7 0 0 28.7 0 64v320c0 35.3 28.7 64 64 64h320c35.3 0 64-28.7 64-64V64c0-35.3-28.7-64-64-64H64Zm64 96c24.634 0 40.03 26.667 27.713 48A32 32 0 0 1 128 160c-24.634 0-40.03-26.667-27.713-48A32 32 0 0 1 128 96Zm0 80c36.95 0 60.044-40 41.569-72A48 48 0 0 0 128 80c-36.95 0-60.044 40-41.569 72A48 48 0 0 0 128 176Zm130 24.2c2.8-5.1 8.2-8.2 14-8.2 5.8 0 11.2 3.2 14 8.2l80 144c2.8 5 2.7 11-.2 15.9-2.9 4.9-8.1 7.9-13.8 7.9H96c-5.9 0-11.3-3.2-14.1-8.5-2.8-5.3-2.5-11.5.8-16.4l64-96c2.6-3.9 6.8-6.5 11.4-7 4.6-.5 9.3 1 12.7 4.1l34 31.4c1.8 1.7 4.3 2.4 6.7 2 2.4-.4 4.5-1.9 5.7-4l40.8-73.4Zm14-24.2c-11.6 0-22.3 6.3-28 16.5L208.2 257l-26.5-24.5c-6.9-6.4-16.2-9.4-25.5-8.3-9.3 1.1-17.6 6.2-22.8 14l-64 96c-6.5 9.8-7.2 22.4-1.6 32.9S84.2 384 96 384h256c11.3 0 21.8-6 27.6-15.8 5.8-9.8 5.9-21.9.4-31.8l-80-144c-5.6-10.2-16.4-16.5-28-16.5v.1Z"/></svg>